<?xml version="1.0" encoding="utf-8"?>
<!-- Generator: Adobe Illustrator 27.0.0, SVG Export Plug-In . SVG Version: 6.00 Build 0)  -->
<svg version="1.1" id="Layer_1" xmlns="http://www.w3.org/2000/svg" xmlns:xlink="http://www.w3.org/1999/xlink" x="0px" y="0px"
	 viewBox="0 0 21 21" style="enable-background:new 0 0 21 21;" xml:space="preserve">
<style type="text/css">
	.st0{fill:#E54F38;}
</style>
<g>
	<g id="Layer_1_00000063605682942346050250000006149229635908414130_">
		<g>
			<path class="st0" d="M10.5,6.6c1.9,0,3.8,0,5.7,0c0.7,0,1.2,0.5,1.1,1.2c-0.1,1.6-0.3,3.1-0.4,4.7c-0.1,1.4-0.2,2.7-0.3,4.1
				c-0.1,2.1-1.8,3.6-3.8,3.7c-1.5,0-3,0-4.5,0c-2.1,0-3.7-1.6-3.8-3.7c-0.1-1.7-0.3-3.5-0.4-5.2c0-1.2-0.2-2.4-0.3-3.6
				c0-0.7,0.3-1.1,1.1-1.1c1.9,0,3.8,0,5.7,0L10.5,6.6z"/>
			<path class="st0" d="M10.5,4.7c-2.2,0-4.5,0-6.7,0c-0.5,0-0.9-0.3-1-0.8c-0.1-0.6,0.3-1.2,1-1.2c0.9,0,1.8,0,2.8,0
				c0.6,0,0.8-0.2,0.8-0.7c0-0.7,0.6-1.2,1.3-1.2c1.2,0,2.4,0,3.6,0c0.7,0,1.3,0.5,1.3,1.2c0,0.5,0.3,0.7,0.8,0.7c0.9,0,1.9,0,2.8,0
				c0.7,0,1.2,0.6,1,1.2c-0.1,0.4-0.5,0.7-1,0.7c-1.3,0-2.6,0-3.9,0C12.4,4.6,11.4,4.6,10.5,4.7L10.5,4.7z"/>
		</g>
	</g>
</g>
</svg>
