<?xml version="1.0" encoding="UTF-8"?>
<svg xmlns="http://www.w3.org/2000/svg" version="1.1" viewBox="0 0 60 60">
  <defs>
    <style>
      .cls-1 {
        fill: #191919;
      }
    </style>
  </defs>
  <!-- Generator: Adobe Illustrator 28.6.0, SVG Export Plug-In . SVG Version: 1.2.0 Build 709)  -->
  <g>
    <g id="Layer_1">
      <g>
        <path class="cls-1" d="M.3,38.7c2.3,0,4.6,0,6.8-.6,3.5-.9,6.4-2.7,8.8-5.3,1.9-1.9,3.4-4.1,4.8-6.4,1.4-2.2,2.7-4.5,4.3-6.5,3.4-4.5,7.8-7.5,13.4-8.6.8-.2,1.7-.3,2.6-.4V2.2c6.2,4.7,12.3,9.3,18.5,13.9-6.2,4.6-12.3,9.2-18.6,13.9,6.2,4.6,12.3,9.2,18.5,13.9-6.2,4.6-12.3,9.2-18.5,13.9v-8.7c-5.8-.4-10.7-2.7-14.7-6.6,2.1-2.8,4.2-5.5,6.4-8.3,2.1,2.5,4.8,4.2,8.3,4.5v-17.1c-1.4.2-2.6.6-3.8,1.3-2.1,1.2-3.6,3.1-4.9,5.1-2,3.2-3.9,6.4-6.2,9.3-4,5-8.9,8.8-15.1,10.7-2.9.8-5.9,1.2-8.9,1.2-.6,0-1.2,0-1.8,0v-10.4Z"/>
        <path class="cls-1" d="M.3,10.9c2.9,0,5.9,0,8.8.7,4.1.9,7.6,2.9,10.5,5.9.6.6,1.1,1.2,1.6,1.7,0,0,0,0,0,.2-1.9,3-3.9,6-5.9,9.1-.2-.3-.4-.4-.5-.6-1.5-1.8-3.1-3.4-5.1-4.6-2.1-1.2-4.4-1.8-6.9-1.9-.8,0-1.7,0-2.5,0v-10.4Z"/>
      </g>
    </g>
  </g>
</svg>