<?xml version="1.0" encoding="UTF-8"?>
<svg xmlns="http://www.w3.org/2000/svg" version="1.1" viewBox="0 0 60 60">
  <defs>
    <style>
      .cls-1 {
        fill: #191919;
      }
    </style>
  </defs>
  <!-- Generator: Adobe Illustrator 28.6.0, SVG Export Plug-In . SVG Version: 1.2.0 Build 709)  -->
  <g>
    <g id="Layer_1">
      <g>
        <path class="cls-1" d="M0,18C0,17.1,0,16.2,0,15.2c0,0,0-.1,0-.2.7-2.9,2.6-4.4,5.6-4.4,3.8,0,7.6,0,11.4,0h.7c0-.6,0-1.1,0-1.6,0-3.2,2.3-5.5,5.5-5.5,4.6,0,9.1,0,13.7,0,3.2,0,5.5,2.3,5.5,5.5,0,.5,0,1,0,1.5.3,0,.5,0,.7,0,3.9,0,7.8,0,11.7,0,2.9,0,5.2,2.3,5.2,5.1,0,3.1-.3,6.1-1.2,9-1.1,3.5-3,6.4-6.1,8.4-2.4,1.5-5.1,2-7.9,2.1-2.4,0-4.8,0-7.3,0-.2,0-.3,0-.5,0,0-1.2,0-2.4,0-3.6,0-2.5-1.9-4.7-4.3-5-1.7-.2-3.4,0-5.1,0-.5,0-1,.2-1.4.4-2,.9-3.1,2.6-3.2,4.8,0,1.2,0,2.3,0,3.6-3.4,0-6.6,0-9.9-.2-4.1-.4-7.3-2.4-9.7-5.8-1.6-2.3-2.5-4.9-2.9-7.6C.3,20.5.2,19.3,0,18ZM38.8,10.6c0-.6,0-1.1,0-1.7,0-1.1-.8-1.8-1.8-1.8-.8,0-1.6,0-2.5,0-3.8,0-7.6,0-11.4,0-1,0-1.8.5-1.9,1.5,0,.7,0,1.3,0,2h17.6Z"/>
        <path class="cls-1" d="M0,30.7c.5.6.9,1.2,1.4,1.8,3.1,3.7,7,5.8,11.8,6.1,2.9.2,5.9.1,8.8.1.3,0,.5,0,.8,0,0,.3,0,.6.1.9.4,2.5,2.5,4.3,5,4.3,1.4,0,2.8,0,4.2,0,2.6-.2,4.5-2.2,4.8-4.8,0-.1,0-.2,0-.4.2,0,.5,0,.7,0,3.1,0,6.2,0,9.3-.2,5.4-.3,9.5-2.9,12.6-7.3,0-.1.2-.3.4-.5v.7c0,7.6,0,15.2,0,22.8,0,1.5-.7,2.1-2.1,2.1-18.5,0-37,0-55.5,0-1.1,0-1.9-.3-2.4-1.3C0,46.9,0,38.8,0,30.7Z"/>
        <path class="cls-1" d="M33.5,35.3c0,1.1,0,2.2,0,3.3,0,1.2-.7,1.9-1.9,1.9-1.1,0-2.1,0-3.2,0-1.2,0-1.9-.7-1.9-1.9,0-2.3,0-4.5,0-6.8,0-1.1.7-1.9,1.9-1.9,1.1,0,2.2,0,3.3,0,1.2,0,1.9.7,1.9,1.9,0,1.1,0,2.3,0,3.4Z"/>
      </g>
    </g>
  </g>
</svg>
