<?xml version="1.0" encoding="UTF-8"?>
<svg xmlns="http://www.w3.org/2000/svg" version="1.1" viewBox="0 0 60 60">
  <defs>
    <style>
      .cls-1 {
        fill: #e54f38;
      }
    </style>
  </defs>
  <!-- Generator: Adobe Illustrator 28.6.0, SVG Export Plug-In . SVG Version: 1.2.0 Build 709)  -->
  <g>
    <g id="Layer_1">
      <g>
        <path class="cls-1" d="M46.3,27.7c-.4-2.7-1.3-5.1-2.8-7.2-1.8-2.6-4.2-4.5-7.2-5.8-.8-.3-.9-.8-.3-1.4.7-.8,1.5-1.6,2.2-2.3,1.5-1.6,1.5-3.6,0-5.2-.2-.2-.3-.4-.5-.6-.3-.3-.4-.6-.2-1,.2-.4.6-.4,1-.3,2.3.8,4.5,1.8,6.5,3.2,7.1,4.9,11.2,11.6,12.2,20.2,0,0,0,.2,0,.3.2,0,.5,0,.7,0,.9,0,1.6.5,1.9,1.4.3.9.1,1.7-.5,2.3-1.6,1.5-3.2,3-4.8,4.6-.5.4-.9.9-1.4,1.3-.9.8-2.1.8-3,0-2.1-1.9-4.1-3.9-6.1-5.8-.7-.7-.9-1.6-.6-2.4.4-.9,1.1-1.3,2.1-1.3.3,0,.5,0,.8,0Z"/>
        <path class="cls-1" d="M27.7,2.8c0-.3,0-.5,0-.7,0-.9.5-1.6,1.3-1.9.8-.3,1.6-.2,2.3.5.9,1,1.9,2,2.8,2.9,1,1.1,2,2.2,3.1,3.2.9,1,.9,2.1,0,3.1-1.9,2-3.8,4-5.7,6-.8.8-1.6,1-2.5.6-.9-.4-1.3-1.2-1.3-2.2,0-.2,0-.5,0-.9-1.4.4-2.6.7-3.8,1.2-4.2,1.7-7.2,4.7-9.1,8.9-.4,1-.8,1.1-1.6.4-.8-.7-1.6-1.5-2.3-2.2-1.5-1.4-3.5-1.4-5,0-.2.2-.3.3-.5.5-.3.3-.6.5-1,.3-.4-.3-.4-.6-.2-1,.2-.6.4-1.1.6-1.7C8.8,10.5,15.8,4.9,25.7,3c.7-.1,1.3-.2,2.1-.3Z"/>
        <path class="cls-1" d="M2.8,32.3c-.3,0-.5,0-.8,0-.9,0-1.6-.5-1.9-1.3-.3-.9-.2-1.7.5-2.3,1.6-1.6,3.3-3.1,4.9-4.7.4-.4.9-.8,1.3-1.2.9-.8,2-.8,2.9,0,2.1,2,4.2,4,6.3,6,.7.6.8,1.5.5,2.3-.3.8-1,1.3-1.9,1.3-.3,0-.6,0-1,0,.2.8.3,1.5.5,2.1,1.5,5,4.6,8.6,9.4,10.7.1,0,.2,0,.3.1.6.3.8.8.3,1.3-.8.9-1.6,1.7-2.4,2.5-1.5,1.6-1.5,3.6,0,5.2.3.4.9.7.5,1.3-.4.6-.9.3-1.4,0-9.6-3.8-15.5-10.7-17.7-20.8-.2-.8-.3-1.6-.4-2.5Z"/>
        <path class="cls-1" d="M32.3,46.2c1.9-.3,3.6-.8,5.3-1.7,3.5-1.9,6.1-4.6,7.6-8.3.3-.8.8-.9,1.4-.3.8.8,1.6,1.6,2.5,2.3,1.5,1.4,3.5,1.4,5.1,0,.2-.2.3-.4.6-.5.3-.1.7-.2.9,0,.2.1.3.6.2.8-.3,1-.7,1.9-1.1,2.8-4.4,8.8-11.4,14.1-21.2,15.6,0,0,0,0,0,0-.4,0-.9,0-1.1.2-.2.2,0,.7-.1,1.1-.1.8-.6,1.4-1.4,1.7-.9.3-1.6,0-2.3-.6-1.6-1.7-3.2-3.3-4.8-5-.4-.4-.8-.8-1.1-1.2-.8-.9-.8-2.1,0-2.9,2-2.1,3.9-4.2,5.9-6.3.6-.7,1.4-.9,2.3-.5.9.3,1.3,1,1.3,2,0,.3,0,.5,0,.9Z"/>
      </g>
    </g>
  </g>
</svg>
