<?xml version="1.0" encoding="utf-8"?>
<!-- Generator: Adobe Illustrator 27.0.0, SVG Export Plug-In . SVG Version: 6.00 Build 0)  -->
<svg version="1.1" id="Layer_1" xmlns="http://www.w3.org/2000/svg" xmlns:xlink="http://www.w3.org/1999/xlink" x="0px" y="0px"
	 viewBox="0 0 60 60" style="enable-background:new 0 0 60 60;" xml:space="preserve">
<style type="text/css">
	.st0{fill:#7b7b7b;}
	.st1{fill:#FFFFFF;}
</style>
<g>
	<path class="st0" d="M21.9,8.6c4.4,0,8.9,0,13.3,0c0.5,0,0.7,0.1,0.7,0.6c0.1,0.8,0.5,1.5,1,2.2c0.8,0.9,1.6,1.9,2.4,2.8
		c0.2,0.3,0.3,0.6,0.3,0.9c-0.1,1.3-0.2,2.5-0.3,3.8c-0.2,3.4,2.9,5.6,6.1,4.4c1.2-0.5,2.4-1,3.6-1.5c0.3-0.1,0.5-0.2,0.8,0
		c1.1,0.5,2.2,0.9,3.3,1.3c0.3,0.1,0.4,0.3,0.4,0.6c0,6.2,0,12.3,0,18.5c0,4.9-4,8.7-8.8,8.7c-3.8,0-7.5,0-11.3,0
		c-0.4,0-0.7,0.1-1.1,0.4c-3.3,2.5-6.5,5-9.8,7.4c-2.7,2-6.3,0.6-6.9-2.7c-0.2-1.1-0.1-2.3,0-3.4C15.6,51,15.7,51,14,51
		c-1.7,0-3.4,0-5.1,0c-5,0-8.9-3.8-8.9-8.8c0-8.3,0-16.5,0-24.8c0-5,3.9-8.8,8.9-8.8C13.3,8.6,17.6,8.6,21.9,8.6z"/>
	<path class="st0" d="M42.5,18.5c0.1-1.5,0.2-3,0.3-4.5c0-0.3,0-0.5-0.2-0.8c-1.1-1.3-2.1-2.5-3.2-3.8c-0.9-1.1-0.6-2,0.8-2.4
		c1.6-0.4,3.1-0.8,4.7-1.2c0.4-0.1,0.6-0.2,0.7-0.5c0.9-1.4,1.7-2.8,2.6-4.2c0.7-1.1,1.7-1.1,2.4,0c0.9,1.4,1.7,2.7,2.6,4.1
		c0.2,0.3,0.4,0.5,0.8,0.6c1.6,0.4,3.1,0.8,4.6,1.1c1.4,0.4,1.7,1.3,0.8,2.4c-1,1.2-2,2.5-3.1,3.7c-0.2,0.3-0.3,0.5-0.3,0.9
		c0.1,1.6,0.2,3.3,0.3,4.9c0.1,1.3-0.7,1.9-2,1.5c-1.5-0.6-2.9-1.2-4.4-1.8c-0.4-0.2-0.8-0.2-1.3,0c-1.4,0.6-2.8,1.1-4.2,1.7
		c-1.2,0.6-2.5-0.1-2.2-1.6C42.5,18.7,42.5,18.6,42.5,18.5z"/>
	<path class="st1" d="M27.2,23.2c3.4,0,6.7,0,10.1,0c1.3,0,2.2,1,1.9,2.2c-0.2,0.9-0.9,1.5-1.9,1.5c-0.9,0-1.9,0-2.8,0
		c-5.8,0-11.6,0-17.4,0c-1.5,0-2.4-1.1-2.1-2.4c0.2-0.8,0.9-1.3,1.9-1.3C20.4,23.2,23.8,23.2,27.2,23.2z"/>
	<path class="st1" d="M22.4,32.7c1.8,0,3.7,0,5.5,0c0.9,0,1.5,0.5,1.7,1.3c0.2,0.7,0,1.5-0.6,2c-0.4,0.3-0.8,0.4-1.3,0.4
		c-3.5,0-7.1,0-10.6,0c-1.2,0-2-0.8-2-1.8c0-1.1,0.8-1.9,2-1.9C18.8,32.7,20.6,32.7,22.4,32.7C22.4,32.7,22.4,32.7,22.4,32.7z"/>
</g>
</svg>
