<?xml version="1.0" encoding="utf-8"?>
<!-- Generator: Adobe Illustrator 27.0.0, SVG Export Plug-In . SVG Version: 6.00 Build 0)  -->
<svg version="1.1" id="Layer_1" xmlns="http://www.w3.org/2000/svg" xmlns:xlink="http://www.w3.org/1999/xlink" x="0px" y="0px"
	 viewBox="0 0 60 60" style="enable-background:new 0 0 60 60;" xml:space="preserve">
<style type="text/css">
	.st0{fill:#7b7b7b;}
</style>
<g>
	<path class="st0" d="M27.1,59.8c-4,0-8.1,0-12.1,0c-0.7-0.1-1.3-0.2-2-0.4c-5.5-1.5-9.1-6.3-9.1-12.1c0-11.5,0-22.9,0-34.4
		c0-0.6,0-1.2,0.1-1.8C4.8,4.8,10,0.3,16.2,0.3c6.7,0,13.5,0,20.2,0c0.9,0,1.8,0.1,2.6,0.3c5.8,1.3,9.6,6.2,9.6,12.2
		c0,4.3,0,8.6,0,13c0,0.2,0,0.4,0,0.6c-0.2,0-0.3-0.1-0.4-0.1c-1.3-0.3-2.6-0.7-3.9-0.8c-6-0.6-11.4,1-15.8,5
		c-5.6,5-7.8,11.4-6.7,18.8C22.5,53.2,24.3,56.7,27.1,59.8z M24,16.8C24,16.8,24,16.8,24,16.8c2.8,0,5.6,0,8.4,0
		c1.7,0,3.1-1.5,3.1-3.2c0-1.7-1.4-3.2-3.1-3.2c-5.6,0-11.1,0-16.7,0c-1.3,0-2.2,0.7-2.8,1.8c-1,2.1,0.5,4.5,2.8,4.6
		C18.5,16.8,21.3,16.8,24,16.8z M18.1,27.5c0.8,0,1.5,0,2.3,0c1.9,0,3.2-1.4,3.2-3.2c0-1.8-1.4-3.2-3.3-3.2c-1.5,0-2.9,0-4.4,0
		c-1.9,0-3.3,1.4-3.3,3.2c0,1.8,1.4,3.1,3.2,3.2C16.6,27.5,17.3,27.5,18.1,27.5z"/>
	<path class="st0" d="M40.7,59.8c-0.9-0.2-1.7-0.3-2.6-0.6c-6.2-1.7-10.5-7.8-10.1-14.1c0.4-6.9,5.3-12.3,11.9-13.3
		c7.8-1.2,15,4.1,16.1,11.9c1.1,7.8-4.4,15-12.3,15.9c-0.1,0-0.3,0.1-0.4,0.1C42.4,59.8,41.6,59.8,40.7,59.8z M40.6,44.9
		c-0.5-0.5-0.9-1-1.3-1.4c-1.3-1.2-3.2-1.2-4.5,0c-1.2,1.2-1.3,3.2-0.1,4.5c1.2,1.3,2.4,2.5,3.7,3.7c1.1,1.1,2.8,1.2,4.1,0.3
		c0.1-0.1,0.3-0.2,0.4-0.3c2.3-2.3,4.6-4.6,6.9-6.9c1.7-1.7,1-4.5-1.2-5.3c-1.3-0.5-2.4-0.2-3.4,0.8C43.6,41.8,42.1,43.3,40.6,44.9z
		"/>
</g>
</svg>
