<?xml version="1.0" encoding="UTF-8"?>
<svg xmlns="http://www.w3.org/2000/svg" version="1.1" viewBox="0 0 60 60">
  <defs>
    <style>
      .cls-1 {
        fill: #e54f38;
      }
    </style>
  </defs>
  <!-- Generator: Adobe Illustrator 28.6.0, SVG Export Plug-In . SVG Version: 1.2.0 Build 709)  -->
  <g>
    <g id="Layer_1">
      <path class="cls-1" d="M42.8,41.8c-3.1,0-6.3,0-9.4,0-1.4,0-1.9.5-1.9,1.9,0,3.7,0,7.4,0,11.1,0,2.3-1.4,4.2-3.4,4.4-1.1.1-2.3,0-3.5-.3-11.8-2.2-21.1-11.5-23.3-23.4C-1.4,21.8,6.3,7.9,19.3,2.8c16.4-6.4,34.5,2.8,39,19.9,1.2,4.7,1.3,9.4.1,14.1-.7,2.9-3.1,4.9-6.1,5-3.2,0-6.4,0-9.5,0,0,0,0,0,0,0ZM13.9,33c2.4,0,4.4-1.9,4.4-4.3,0-2.4-2-4.4-4.4-4.4-2.4,0-4.4,2-4.4,4.4,0,2.4,2,4.3,4.4,4.3ZM25.6,16.9c0-2.4-2-4.4-4.4-4.4-2.4,0-4.4,2-4.4,4.4,0,2.4,2,4.4,4.4,4.4,2.4,0,4.4-2,4.4-4.4ZM43.2,16.9c0-2.4-2-4.4-4.4-4.4-2.4,0-4.4,2-4.4,4.4,0,2.4,2,4.4,4.4,4.4,2.4,0,4.4-2,4.4-4.4ZM50.5,28.6c0-2.4-2-4.4-4.4-4.4-2.4,0-4.4,2-4.4,4.4,0,2.4,2,4.4,4.4,4.4,2.4,0,4.3-2,4.3-4.4Z"/>
    </g>
  </g>
</svg>
